<?xml version="1.0" encoding="UTF-8"?>
<svg enable-background="new 0 0 350 350" version="1.1" viewBox="0 0 350 350" xml:space="preserve" xmlns="http://www.w3.org/2000/svg">
<style type="text/css">
	.st0{fill:#FFFFFF;}
</style>
	<path class="st0" d="m175 171.2c38.9 0 70.5-38.3 70.5-85.6s-10.4-85.6-70.5-85.6-70.5 38.3-70.5 85.6 31.6 85.6 70.5 85.6z"/>
	<path class="st0" d="m41.9 301.9v0z"/>
	<path class="st0" d="m308.1 304.1v0z"/>
	<path class="st0" d="m307.9 298.4c-1.3-82.3-12.1-105.8-94.4-120.7 0 0-11.6 14.8-38.6 14.8s-38.6-14.8-38.6-14.8c-81.4 14.7-92.8 37.8-94.3 118-0.1 6.5-0.2 6.9-0.2 6.1v8.7s19.6 39.5 133.1 39.5 133.1-39.5 133.1-39.5v-6.4c0.1 0.5 0-0.4-0.1-5.7z"/>
</svg>
